<?xml version="1.0" encoding="UTF-8" standalone="no"?>
<svg
   xmlns:dc="http://purl.org/dc/elements/1.1/"
   xmlns:cc="http://creativecommons.org/ns#"
   xmlns:rdf="http://www.w3.org/1999/02/22-rdf-syntax-ns#"
   xmlns:svg="http://www.w3.org/2000/svg"
   xmlns="http://www.w3.org/2000/svg"
   xmlns:sodipodi="http://sodipodi.sourceforge.net/DTD/sodipodi-0.dtd"
   xmlns:inkscape="http://www.inkscape.org/namespaces/inkscape"
   width="100.28pt"
   height="37.42pt"
   viewBox="0 0 100.28 37.42"
   version="1.2"
   id="svg3794"
   sodipodi:docname="SURF_SARA_fc.svg"
   inkscape:version="0.92.3 (2405546, 2018-03-11)">
  <metadata
     id="metadata3798">
    <rdf:RDF>
      <cc:Work
         rdf:about="">
        <dc:format>image/svg+xml</dc:format>
        <dc:type
           rdf:resource="http://purl.org/dc/dcmitype/StillImage" />
        <dc:title></dc:title>
      </cc:Work>
    </rdf:RDF>
  </metadata>
  <sodipodi:namedview
     pagecolor="#ffffff"
     bordercolor="#666666"
     borderopacity="1"
     objecttolerance="10"
     gridtolerance="10"
     guidetolerance="10"
     inkscape:pageopacity="0"
     inkscape:pageshadow="2"
     inkscape:window-width="1853"
     inkscape:window-height="1025"
     id="namedview3796"
     showgrid="false"
     inkscape:zoom="12.579777"
     inkscape:cx="66.853333"
     inkscape:cy="24.946665"
     inkscape:window-x="67"
     inkscape:window-y="27"
     inkscape:window-maximized="1"
     inkscape:current-layer="svg3794" />
  <defs
     id="defs3769">
    <clipPath
       id="clip1">
      <path
         d="M 0 0 L 74 0 L 74 37.421875 L 0 37.421875 Z M 0 0 "
         id="path3763" />
    </clipPath>
    <clipPath
       id="clip2">
      <path
         d="M 90 5 L 100.28125 5 L 100.28125 17 L 90 17 Z M 90 5 "
         id="path3766" />
    </clipPath>
  </defs>
  <g
     id="surface9307">
    <g
       clip-path="url(#clip1)"
       clip-rule="nonzero"
       id="g3773">
      <path
         style=" stroke:none;fill-rule:nonzero;fill:rgb(12.559509%,9.503174%,5.332947%);fill-opacity:1;"
         d="M 67.808594 22.609375 C 70.910156 22.609375 73.421875 25.125 73.421875 28.222656 L 73.421875 31.808594 C 73.421875 34.910156 70.910156 37.421875 67.808594 37.421875 L 59.429688 37.421875 C 56.332031 37.421875 53.820312 34.910156 53.820312 31.808594 L 53.820312 29.59375 C 53.820312 25.738281 50.691406 22.609375 46.835938 22.609375 L 6.984375 22.609375 C 3.128906 22.609375 0 19.484375 0 15.625 L 0 6.988281 C 0 3.132812 3.128906 0.00390625 6.984375 0.00390625 L 46.835938 0.00390625 C 50.691406 0.00390625 53.820312 3.132812 53.820312 6.988281 L 53.820312 15.625 C 53.820312 19.484375 56.945312 22.609375 60.804688 22.609375 L 67.808594 22.609375 "
         id="path3771" />
    </g>
    <path
       style=" stroke:none;fill-rule:nonzero;fill:rgb(100%,100%,100%);fill-opacity:1;"
       d="M 12.03125 13.378906 C 12.03125 12.851562 11.375 12.636719 10.527344 12.382812 L 8.832031 11.871094 C 7.609375 11.507812 6.535156 10.648438 6.535156 9.144531 C 6.535156 7.328125 8.160156 6.09375 10.367188 6.09375 C 12.074219 6.09375 14.089844 6.683594 14.089844 7.773438 C 14.089844 8.445312 13.753906 8.859375 13.132812 8.859375 C 12.8125 8.859375 12.53125 8.753906 12.207031 8.644531 C 11.734375 8.472656 11.160156 8.269531 10.367188 8.269531 C 9.71875 8.269531 8.914062 8.523438 8.914062 9.035156 C 8.914062 9.492188 9.277344 9.707031 10.070312 9.949219 L 11.964844 10.527344 C 13.242188 10.917969 14.410156 11.683594 14.410156 13.445312 C 14.410156 15.324219 12.652344 16.535156 10.394531 16.535156 C 8.496094 16.535156 6.28125 15.945312 6.28125 14.855469 C 6.28125 14.183594 6.667969 13.765625 7.34375 13.765625 C 7.691406 13.765625 8.011719 13.859375 8.375 13.980469 C 8.886719 14.15625 9.492188 14.359375 10.394531 14.359375 C 11.160156 14.359375 12.03125 14.007812 12.03125 13.378906 "
       id="path3775" />
    <path
       style=" stroke:none;fill-rule:nonzero;fill:rgb(100%,100%,100%);fill-opacity:1;"
       d="M 23.550781 7.300781 C 23.550781 6.535156 23.953125 6.148438 24.707031 6.148438 C 25.472656 6.148438 25.875 6.535156 25.875 7.300781 L 25.875 11.738281 C 25.875 14.652344 23.925781 16.535156 21.265625 16.535156 C 18.617188 16.535156 16.667969 14.652344 16.667969 11.738281 L 16.667969 7.300781 C 16.667969 6.535156 17.074219 6.148438 17.824219 6.148438 C 18.589844 6.148438 18.992188 6.535156 18.992188 7.300781 L 18.992188 11.738281 C 18.992188 13.308594 19.949219 14.25 21.265625 14.25 C 22.59375 14.25 23.550781 13.308594 23.550781 11.738281 L 23.550781 7.300781 "
       id="path3777" />
    <path
       style=" stroke:none;fill-rule:nonzero;fill:rgb(100%,100%,100%);fill-opacity:1;"
       d="M 30.929688 8.457031 L 30.929688 11.160156 L 32.890625 11.160156 C 33.777344 11.160156 34.476562 10.757812 34.476562 9.816406 C 34.476562 8.859375 33.777344 8.457031 32.890625 8.457031 Z M 33.050781 13.269531 L 30.929688 13.269531 L 30.929688 15.324219 C 30.929688 16.09375 30.523438 16.480469 29.757812 16.480469 C 29.007812 16.480469 28.601562 16.09375 28.601562 15.324219 L 28.601562 7.394531 C 28.601562 6.628906 29.007812 6.238281 29.757812 6.238281 L 33.09375 6.238281 C 35.324219 6.238281 36.867188 7.707031 36.867188 9.816406 C 36.867188 11.105469 36.277344 12.085938 35.28125 12.609375 L 36.359375 14.761719 C 36.464844 14.976562 36.503906 15.175781 36.503906 15.378906 C 36.503906 16.050781 35.738281 16.480469 35.160156 16.480469 C 34.730469 16.480469 34.421875 16.226562 34.207031 15.742188 L 33.050781 13.269531 "
       id="path3779" />
    <path
       style=" stroke:none;fill-rule:nonzero;fill:rgb(100%,100%,100%);fill-opacity:1;"
       d="M 41.707031 12.828125 L 41.707031 15.324219 C 41.707031 16.09375 41.316406 16.480469 40.550781 16.480469 C 39.796875 16.480469 39.394531 16.09375 39.394531 15.324219 L 39.394531 7.394531 C 39.394531 6.628906 39.796875 6.238281 40.550781 6.238281 L 46.117188 6.238281 C 46.855469 6.238281 47.21875 6.617188 47.21875 7.34375 C 47.21875 8.082031 46.855469 8.457031 46.117188 8.457031 L 41.707031 8.457031 L 41.707031 10.609375 L 44.460938 10.609375 C 45.203125 10.609375 45.5625 10.984375 45.5625 11.722656 C 45.5625 12.449219 45.203125 12.828125 44.460938 12.828125 L 41.707031 12.828125 "
       id="path3781" />
    <path
       style=" stroke:none;fill-rule:nonzero;fill:rgb(12.559509%,9.503174%,5.332947%);fill-opacity:1;"
       d="M 65.757812 13.34375 C 65.757812 12.808594 65.089844 12.589844 64.226562 12.328125 L 62.496094 11.808594 C 61.25 11.4375 60.15625 10.5625 60.15625 9.027344 C 60.15625 7.175781 61.8125 5.917969 64.058594 5.917969 C 65.800781 5.917969 67.855469 6.519531 67.855469 7.628906 C 67.855469 8.316406 67.511719 8.738281 66.882812 8.738281 C 66.554688 8.738281 66.265625 8.628906 65.9375 8.519531 C 65.457031 8.34375 64.867188 8.136719 64.058594 8.136719 C 63.402344 8.136719 62.582031 8.398438 62.582031 8.917969 C 62.582031 9.382812 62.949219 9.601562 63.757812 9.847656 L 65.691406 10.4375 C 66.992188 10.835938 68.183594 11.617188 68.183594 13.410156 C 68.183594 15.332031 66.390625 16.5625 64.085938 16.5625 C 62.15625 16.5625 59.894531 15.960938 59.894531 14.851562 C 59.894531 14.164062 60.292969 13.742188 60.976562 13.742188 C 61.332031 13.742188 61.664062 13.835938 62.03125 13.960938 C 62.554688 14.136719 63.167969 14.34375 64.085938 14.34375 C 64.867188 14.34375 65.757812 13.988281 65.757812 13.34375 "
       id="path3783" />
    <path
       style=" stroke:none;fill-rule:nonzero;fill:rgb(12.559509%,9.503174%,5.332947%);fill-opacity:1;"
       d="M 72.980469 12.835938 L 75.929688 12.835938 L 74.460938 9.535156 Z M 79.257812 14.824219 C 79.367188 15.070312 79.421875 15.273438 79.421875 15.480469 C 79.421875 16.125 78.738281 16.5625 78.09375 16.5625 C 77.667969 16.5625 77.324219 16.289062 77.105469 15.824219 L 76.667969 14.878906 L 72.242188 14.878906 L 71.804688 15.824219 C 71.585938 16.289062 71.242188 16.5625 70.816406 16.5625 C 70.171875 16.5625 69.488281 16.125 69.488281 15.480469 C 69.488281 15.273438 69.542969 15.070312 69.652344 14.824219 L 73.351562 6.78125 C 73.570312 6.285156 73.914062 5.972656 74.460938 5.972656 C 74.984375 5.972656 75.339844 6.285156 75.558594 6.78125 L 79.257812 14.824219 "
       id="path3785" />
    <path
       style=" stroke:none;fill-rule:nonzero;fill:rgb(12.559509%,9.503174%,5.332947%);fill-opacity:1;"
       d="M 83.355469 8.328125 L 83.355469 11.082031 L 85.355469 11.082031 C 86.261719 11.082031 86.972656 10.671875 86.972656 9.710938 C 86.972656 8.738281 86.261719 8.328125 85.355469 8.328125 Z M 85.519531 13.234375 L 83.355469 13.234375 L 83.355469 15.332031 C 83.355469 16.109375 82.945312 16.507812 82.164062 16.507812 C 81.394531 16.507812 80.984375 16.109375 80.984375 15.332031 L 80.984375 7.246094 C 80.984375 6.464844 81.394531 6.066406 82.164062 6.066406 L 85.5625 6.066406 C 87.835938 6.066406 89.414062 7.5625 89.414062 9.710938 C 89.414062 11.027344 88.808594 12.027344 87.796875 12.5625 L 88.890625 14.753906 C 89 14.972656 89.042969 15.179688 89.042969 15.386719 C 89.042969 16.070312 88.261719 16.507812 87.671875 16.507812 C 87.234375 16.507812 86.917969 16.25 86.699219 15.753906 L 85.519531 13.234375 "
       id="path3787" />
    <g
       clip-path="url(#clip2)"
       clip-rule="nonzero"
       id="g3791">
      <path
         style=" stroke:none;fill-rule:nonzero;fill:rgb(12.559509%,9.503174%,5.332947%);fill-opacity:1;"
         d="M 93.839844 12.835938 L 96.785156 12.835938 L 95.316406 9.535156 Z M 100.113281 14.824219 C 100.222656 15.070312 100.277344 15.273438 100.277344 15.480469 C 100.277344 16.125 99.59375 16.5625 98.949219 16.5625 C 98.523438 16.5625 98.183594 16.289062 97.960938 15.824219 L 97.523438 14.878906 L 93.097656 14.878906 L 92.660156 15.824219 C 92.441406 16.289062 92.097656 16.5625 91.671875 16.5625 C 91.03125 16.5625 90.34375 16.125 90.34375 15.480469 C 90.34375 15.273438 90.398438 15.070312 90.507812 14.824219 L 94.207031 6.78125 C 94.425781 6.285156 94.769531 5.972656 95.316406 5.972656 C 95.839844 5.972656 96.195312 6.285156 96.414062 6.78125 L 100.113281 14.824219 "
         id="path3789" />
    </g>
  </g>
</svg>
