<?xml version="1.0" encoding="UTF-8" standalone="no"?>
<!-- Created with Inkscape (http://www.inkscape.org/) -->

<svg
   xmlns:dc="http://purl.org/dc/elements/1.1/"
   xmlns:cc="http://creativecommons.org/ns#"
   xmlns:rdf="http://www.w3.org/1999/02/22-rdf-syntax-ns#"
   xmlns:svg="http://www.w3.org/2000/svg"
   xmlns="http://www.w3.org/2000/svg"
   xmlns:sodipodi="http://sodipodi.sourceforge.net/DTD/sodipodi-0.dtd"
   xmlns:inkscape="http://www.inkscape.org/namespaces/inkscape"
   version="1.1"
   id="svg72"
   xml:space="preserve"
   width="97.893333"
   height="49.893333"
   viewBox="0 0 97.893333 49.893333"
   sodipodi:docname="SURF_fc.svg"
   inkscape:version="0.92.3 (2405546, 2018-03-11)"><metadata
     id="metadata78"><rdf:RDF><cc:Work
         rdf:about=""><dc:format>image/svg+xml</dc:format><dc:type
           rdf:resource="http://purl.org/dc/dcmitype/StillImage" /><dc:title></dc:title></cc:Work></rdf:RDF></metadata><defs
     id="defs76" /><sodipodi:namedview
     pagecolor="#ffffff"
     bordercolor="#666666"
     borderopacity="1"
     objecttolerance="10"
     gridtolerance="10"
     guidetolerance="10"
     inkscape:pageopacity="0"
     inkscape:pageshadow="2"
     inkscape:window-width="1853"
     inkscape:window-height="1025"
     id="namedview74"
     showgrid="false"
     inkscape:zoom="16.916088"
     inkscape:cx="48.946667"
     inkscape:cy="24.946667"
     inkscape:window-x="67"
     inkscape:window-y="27"
     inkscape:window-maximized="1"
     inkscape:current-layer="g80" /><g
     id="g80"
     inkscape:groupmode="layer"
     inkscape:label="ink_ext_XXXXXX"
     transform="matrix(1.3333333,0,0,-1.3333333,0,49.893333)"><g
       id="g82"
       transform="scale(0.1)"><path
         d="m 678.09,148.098 c 30.996,0 56.133,-25.129 56.133,-56.1292 V 56.1133 C 734.223,25.1172 709.086,0 678.09,0 h -83.777 c -30.997,0 -56.125,25.1172 -56.125,56.1133 v 22.1445 c 0,38.5662 -31.27,69.8402 -69.844,69.8402 H 69.8438 C 31.2734,148.098 0,179.363 0,217.945 v 86.368 c 0,38.574 31.2734,69.847 69.8438,69.847 H 468.344 c 38.574,0 69.844,-31.273 69.844,-69.847 v -86.368 c 0,-38.582 31.269,-69.847 69.855,-69.847 h 70.047"
         style="fill:#20180e;fill-opacity:1;fill-rule:nonzero;stroke:none"
         id="path84"
         inkscape:connector-curvature="0" /><path
         d="m 120.316,240.43 c 0,5.238 -6.582,7.39 -15.046,9.945 l -16.9341,5.109 c -12.2343,3.625 -22.9843,12.231 -22.9843,27.286 0,18.144 16.2656,30.507 38.3044,30.507 17.071,0 37.227,-5.914 37.227,-16.804 0,-6.719 -3.363,-10.883 -9.543,-10.883 -3.227,0 -6.047,1.074 -9.27,2.148 -4.707,1.75 -10.484,3.766 -18.414,3.766 -6.4529,0 -14.5154,-2.555 -14.5154,-7.66 0,-4.571 3.6289,-6.719 11.5584,-9.137 l 18.949,-5.781 c 12.77,-3.899 24.461,-11.559 24.461,-29.168 0,-18.817 -17.605,-30.91 -40.183,-30.91 -18.9494,0 -41.1291,5.914 -41.1291,16.8 0,6.719 3.8984,10.883 10.6211,10.883 3.4922,0 6.7187,-0.933 10.3476,-2.152 5.1055,-1.742 11.1524,-3.758 20.1604,-3.758 7.66,0 16.39,3.488 16.39,9.809"
         style="fill:#ffffff;fill-opacity:1;fill-rule:nonzero;stroke:none"
         id="path86"
         inkscape:connector-curvature="0" /><path
         d="m 235.504,301.18 c 0,7.656 4.031,11.554 11.559,11.554 7.656,0 11.691,-3.898 11.691,-11.554 v -44.348 c 0,-29.168 -19.492,-47.984 -46.102,-47.984 -26.48,0 -45.968,18.816 -45.968,47.984 v 44.348 c 0,7.656 4.039,11.554 11.562,11.554 7.656,0 11.692,-3.898 11.692,-11.554 v -44.348 c 0,-15.73 9.542,-25.137 22.714,-25.137 13.305,0 22.852,9.407 22.852,25.137 v 44.348"
         style="fill:#ffffff;fill-opacity:1;fill-rule:nonzero;stroke:none"
         id="path88"
         inkscape:connector-curvature="0" /><path
         d="m 309.281,289.625 v -27.012 h 19.625 c 8.871,0 15.856,4.028 15.856,13.438 0,9.539 -6.985,13.574 -15.856,13.574 z m 21.242,-48.121 h -21.242 v -20.563 c 0,-7.66 -4.031,-11.554 -11.687,-11.554 -7.528,0 -11.563,3.894 -11.563,11.554 v 79.297 c 0,7.66 4.035,11.563 11.563,11.563 h 33.328 c 22.316,0 37.766,-14.653 37.766,-35.75 0,-12.903 -5.918,-22.723 -15.86,-27.961 l 10.75,-21.504 c 1.074,-2.148 1.477,-4.16 1.477,-6.18 0,-6.718 -7.657,-11.019 -13.438,-11.019 -4.297,0 -7.383,2.551 -9.539,7.386 l -11.555,24.731"
         style="fill:#ffffff;fill-opacity:1;fill-rule:nonzero;stroke:none"
         id="path90"
         inkscape:connector-curvature="0" /><path
         d="m 417.066,245.938 v -24.997 c 0,-7.66 -3.886,-11.554 -11.554,-11.554 -7.528,0 -11.551,3.894 -11.551,11.554 v 79.297 c 0,7.66 4.023,11.563 11.551,11.563 h 55.644 c 7.395,0 11.016,-3.77 11.016,-11.024 0,-7.39 -3.621,-11.152 -11.016,-11.152 h -44.09 v -21.512 h 27.559 c 7.391,0 11.016,-3.761 11.016,-11.148 0,-7.262 -3.625,-11.027 -11.016,-11.027 h -27.559"
         style="fill:#ffffff;fill-opacity:1;fill-rule:nonzero;stroke:none"
         id="path92"
         inkscape:connector-curvature="0" /></g></g></svg>