<?xml version="1.0" encoding="UTF-8" standalone="no"?>
<!-- Created with Inkscape (http://www.inkscape.org/) -->

<svg
   xmlns:dc="http://purl.org/dc/elements/1.1/"
   xmlns:cc="http://creativecommons.org/ns#"
   xmlns:rdf="http://www.w3.org/1999/02/22-rdf-syntax-ns#"
   xmlns:svg="http://www.w3.org/2000/svg"
   xmlns="http://www.w3.org/2000/svg"
   xmlns:sodipodi="http://sodipodi.sourceforge.net/DTD/sodipodi-0.dtd"
   xmlns:inkscape="http://www.inkscape.org/namespaces/inkscape"
   version="1.1"
   id="svg3925"
   xml:space="preserve"
   width="165.96001"
   height="49.893333"
   viewBox="0 0 165.96001 49.893333"
   sodipodi:docname="SURF_MARKET_fc.svg"
   inkscape:version="0.92.3 (2405546, 2018-03-11)"><metadata
     id="metadata3931"><rdf:RDF><cc:Work
         rdf:about=""><dc:format>image/svg+xml</dc:format><dc:type
           rdf:resource="http://purl.org/dc/dcmitype/StillImage" /><dc:title></dc:title></cc:Work></rdf:RDF></metadata><defs
     id="defs3929" /><sodipodi:namedview
     pagecolor="#ffffff"
     bordercolor="#666666"
     borderopacity="1"
     objecttolerance="10"
     gridtolerance="10"
     guidetolerance="10"
     inkscape:pageopacity="0"
     inkscape:pageshadow="2"
     inkscape:window-width="640"
     inkscape:window-height="480"
     id="namedview3927"
     showgrid="false"
     inkscape:zoom="2.1752229"
     inkscape:cx="82.980003"
     inkscape:cy="24.946667"
     inkscape:window-x="67"
     inkscape:window-y="27"
     inkscape:window-maximized="0"
     inkscape:current-layer="g3933" /><g
     id="g3933"
     inkscape:groupmode="layer"
     inkscape:label="ink_ext_XXXXXX"
     transform="matrix(1.3333333,0,0,-1.3333333,0,49.893333)"><g
       id="g3935"
       transform="scale(0.1)"><path
         d="m 678.09,148.098 c 30.996,0 56.133,-25.129 56.133,-56.1292 V 56.1133 C 734.223,25.1172 709.086,0 678.09,0 h -83.777 c -30.997,0 -56.125,25.1172 -56.125,56.1133 v 22.1445 c 0,38.5662 -31.27,69.8402 -69.844,69.8402 H 69.8438 C 31.2734,148.098 0,179.363 0,217.945 v 86.368 c 0,38.574 31.2734,69.847 69.8438,69.847 H 468.344 c 38.574,0 69.844,-31.273 69.844,-69.847 v -86.368 c 0,-38.582 31.269,-69.847 69.855,-69.847 h 70.047"
         style="fill:#20180e;fill-opacity:1;fill-rule:nonzero;stroke:none"
         id="path3937"
         inkscape:connector-curvature="0" /><path
         d="m 120.316,240.43 c 0,5.238 -6.582,7.39 -15.046,9.945 l -16.9341,5.109 c -12.2343,3.625 -22.9843,12.231 -22.9843,27.286 0,18.144 16.2656,30.507 38.3044,30.507 17.071,0 37.227,-5.914 37.227,-16.804 0,-6.719 -3.363,-10.883 -9.543,-10.883 -3.227,0 -6.047,1.074 -9.27,2.148 -4.707,1.75 -10.484,3.766 -18.414,3.766 -6.4529,0 -14.5154,-2.555 -14.5154,-7.66 0,-4.571 3.6289,-6.719 11.5584,-9.137 l 18.949,-5.781 c 12.77,-3.899 24.461,-11.559 24.461,-29.168 0,-18.817 -17.605,-30.91 -40.183,-30.91 -18.9494,0 -41.1291,5.914 -41.1291,16.8 0,6.719 3.8984,10.883 10.6211,10.883 3.4922,0 6.7187,-0.933 10.3476,-2.152 5.1055,-1.742 11.1524,-3.758 20.1604,-3.758 7.66,0 16.39,3.488 16.39,9.809"
         style="fill:#ffffff;fill-opacity:1;fill-rule:nonzero;stroke:none"
         id="path3939"
         inkscape:connector-curvature="0" /><path
         d="m 235.504,301.18 c 0,7.656 4.031,11.554 11.559,11.554 7.656,0 11.691,-3.898 11.691,-11.554 v -44.348 c 0,-29.168 -19.492,-47.984 -46.102,-47.984 -26.48,0 -45.968,18.816 -45.968,47.984 v 44.348 c 0,7.656 4.039,11.554 11.562,11.554 7.656,0 11.692,-3.898 11.692,-11.554 v -44.348 c 0,-15.73 9.542,-25.137 22.714,-25.137 13.305,0 22.852,9.407 22.852,25.137 v 44.348"
         style="fill:#ffffff;fill-opacity:1;fill-rule:nonzero;stroke:none"
         id="path3941"
         inkscape:connector-curvature="0" /><path
         d="m 309.281,289.625 v -27.012 h 19.625 c 8.871,0 15.856,4.028 15.856,13.438 0,9.539 -6.985,13.574 -15.856,13.574 z m 21.242,-48.121 h -21.242 v -20.563 c 0,-7.66 -4.031,-11.554 -11.687,-11.554 -7.528,0 -11.563,3.894 -11.563,11.554 v 79.297 c 0,7.66 4.035,11.563 11.563,11.563 h 33.328 c 22.316,0 37.766,-14.653 37.766,-35.75 0,-12.903 -5.918,-22.723 -15.86,-27.961 l 10.75,-21.504 c 1.074,-2.148 1.477,-4.16 1.477,-6.18 0,-6.718 -7.657,-11.019 -13.438,-11.019 -4.297,0 -7.383,2.551 -9.539,7.386 l -11.555,24.731"
         style="fill:#ffffff;fill-opacity:1;fill-rule:nonzero;stroke:none"
         id="path3943"
         inkscape:connector-curvature="0" /><path
         d="m 417.066,245.938 v -24.997 c 0,-7.66 -3.886,-11.554 -11.554,-11.554 -7.528,0 -11.551,3.894 -11.551,11.554 v 79.297 c 0,7.66 4.023,11.563 11.551,11.563 h 55.644 c 7.395,0 11.016,-3.77 11.016,-11.024 0,-7.39 -3.621,-11.152 -11.016,-11.152 h -44.09 v -21.512 h 27.559 c 7.391,0 11.016,-3.761 11.016,-11.148 0,-7.262 -3.625,-11.027 -11.016,-11.027 h -27.559"
         style="fill:#ffffff;fill-opacity:1;fill-rule:nonzero;stroke:none"
         id="path3945"
         inkscape:connector-curvature="0" /><path
         d="m 686.371,305.586 c 4.387,6.023 8.496,8.906 13.156,8.906 7.254,0 12.051,-3.293 12.051,-12.609 v -80.985 c 0,-7.8 -4.113,-11.777 -11.777,-11.777 -7.813,0 -11.926,3.977 -11.926,11.777 v 49.473 l -17.402,-23.164 c -4.657,-6.16 -8.36,-9.043 -12.469,-9.043 -4.25,0 -7.531,2.473 -12.473,9.043 l -17.402,23.164 v -49.473 c 0,-7.8 -4.109,-11.777 -11.785,-11.777 -7.805,0 -11.914,3.977 -11.914,11.777 v 80.985 c 0,9.316 4.793,12.609 12.195,12.609 4.523,0 8.633,-3.019 13.156,-8.906 l 28.223,-37.957 28.367,37.957"
         style="fill:#20180e;fill-opacity:1;fill-rule:nonzero;stroke:none"
         id="path3947"
         inkscape:connector-curvature="0" /><path
         d="m 764.352,245.84 h 29.461 l -14.668,33.027 z m 62.753,-19.863 c 1.102,-2.469 1.649,-4.524 1.649,-6.582 0,-6.434 -6.856,-10.821 -13.289,-10.821 -4.25,0 -7.676,2.735 -9.875,7.395 l -4.383,9.453 h -44.258 l -4.386,-9.453 c -2.188,-4.66 -5.614,-7.395 -9.864,-7.395 -6.433,0 -13.289,4.387 -13.289,10.821 0,2.058 0.547,4.113 1.641,6.582 l 37,80.429 c 2.187,4.93 5.617,8.086 11.094,8.086 5.214,0 8.769,-3.156 10.968,-8.086 l 36.992,-80.429"
         style="fill:#20180e;fill-opacity:1;fill-rule:nonzero;stroke:none"
         id="path3949"
         inkscape:connector-curvature="0" /><path
         d="m 869.184,290.918 v -27.539 h 20 c 9.054,0 16.171,4.109 16.171,13.699 0,9.727 -7.117,13.84 -16.171,13.84 z m 21.652,-49.055 h -21.652 v -20.965 c 0,-7.8 -4.11,-11.777 -11.922,-11.777 -7.676,0 -11.789,3.977 -11.789,11.777 v 80.848 c 0,7.813 4.113,11.789 11.789,11.789 h 33.984 c 22.742,0 38.504,-14.941 38.504,-36.457 0,-13.152 -6.035,-23.152 -16.172,-28.492 l 10.969,-21.926 c 1.094,-2.195 1.504,-4.25 1.504,-6.308 0,-6.844 -7.813,-11.231 -13.703,-11.231 -4.383,0 -7.539,2.598 -9.727,7.527 l -11.785,25.215"
         style="fill:#20180e;fill-opacity:1;fill-rule:nonzero;stroke:none"
         id="path3951"
         inkscape:connector-curvature="0" /><path
         d="m 985.934,249.266 -9.454,-8.36 v -20.008 c 0,-7.8 -4.113,-11.777 -11.925,-11.777 -7.676,0 -11.778,3.977 -11.778,11.777 v 81.805 c 0,7.813 4.102,11.789 11.778,11.789 7.812,0 11.925,-3.976 11.925,-11.789 v -33.711 l 43.16,42.481 c 2.6,2.472 4.94,3.566 7.4,3.566 5.35,0 12.33,-5.344 12.33,-11.652 0,-2.598 -1.64,-5.887 -3.97,-8.223 l -31.65,-30.555 31.37,-36.171 c 2.34,-2.598 3.57,-5.477 3.57,-7.95 0,-5.617 -6.99,-11.914 -12.61,-11.914 -3.15,0 -5.75,1.367 -8.63,4.524 l -31.516,36.168"
         style="fill:#20180e;fill-opacity:1;fill-rule:nonzero;stroke:none"
         id="path3953"
         inkscape:connector-curvature="0" /><path
         d="m 1131.19,313.535 c 7.54,0 11.24,-3.84 11.24,-11.242 0,-7.539 -3.7,-11.375 -11.24,-11.375 h -46.18 v -17.539 h 28.77 c 7.54,0 11.24,-3.691 11.24,-11.231 0,-7.539 -3.7,-11.242 -11.24,-11.242 h -28.77 V 232.82 h 46.18 c 7.54,0 11.24,-3.836 11.24,-11.367 0,-7.398 -3.7,-11.238 -11.24,-11.238 h -58.1 c -7.67,0 -11.78,3.973 -11.78,11.789 v 79.742 c 0,7.813 4.11,11.789 11.78,11.789 h 58.1"
         style="fill:#20180e;fill-opacity:1;fill-rule:nonzero;stroke:none"
         id="path3955"
         inkscape:connector-curvature="0" /><path
         d="m 1189.99,220.898 v 70.02 h -19.59 c -7.68,0 -11.38,3.836 -11.38,11.375 0,7.402 3.7,11.242 11.38,11.242 h 63.02 c 7.54,0 11.24,-3.84 11.24,-11.242 0,-7.539 -3.7,-11.375 -11.24,-11.375 h -19.72 v -70.02 c 0,-7.8 -4.12,-11.777 -11.79,-11.777 -7.81,0 -11.92,3.977 -11.92,11.777"
         style="fill:#20180e;fill-opacity:1;fill-rule:nonzero;stroke:none"
         id="path3957"
         inkscape:connector-curvature="0" /></g></g></svg>